<?xml version="1.0" standalone="yes"?><svg xmlns="http://www.w3.org/2000/svg" height="300" width="300" viewBox="0 0 100 100" style="zoom: 1;"><switch><g><path d="M50 6.375c24.055 0 43.625 19.57 43.625 43.625S74.055 93.625 50 93.625 6.375 74.055 6.375 50 25.945 6.375 50 6.375m0-1C25.354 5.375 5.375 25.354 5.375 50S25.354 94.625 50 94.625 94.625 74.646 94.625 50 74.646 5.375 50 5.375z"></path><path d="M50.271 27.719a1.337 1.337 0 0 1-.201.295.717.717 0 0 1-1.043.05 1.26 1.26 0 0 1-.142-.159c-.043-.057-.076-.12-.115-.182-.053.013-.109.031-.165.042a.853.853 0 0 1-.593-.073.682.682 0 0 1-.352-.515 1.04 1.04 0 0 1 .042-.476l.013-.039a.955.955 0 0 1-.469-.433c-.133-.271-.095-.526.084-.762.089-.117.204-.204.333-.274l.048-.026c-.017-.071-.037-.14-.048-.211a.82.82 0 0 1 .099-.585.686.686 0 0 1 .499-.321c.163-.026.323-.005.479.045l.03.009c.001 0 .002 0-.003-.005.06-.085.114-.175.181-.255a.762.762 0 0 1 .407-.263.688.688 0 0 1 .604.131 1.037 1.037 0 0 1 .313.393c.105-.036.211-.06.321-.065.237-.01.449.05.615.229a.71.71 0 0 1 .185.439c.013.145-.008.286-.053.424l-.009.031c.104.051.201.113.285.192.173.163.274.359.26.602a.715.715 0 0 1-.176.422 1.07 1.07 0 0 1-.337.264l-.026.014c.018.088.042.172.052.258.027.225-.011.435-.16.616a.695.695 0 0 1-.442.244 1.07 1.07 0 0 1-.516-.056zM50.271 75.896a1.337 1.337 0 0 1-.201.295.717.717 0 0 1-1.043.05 1.26 1.26 0 0 1-.142-.159c-.043-.057-.076-.12-.115-.182-.053.013-.109.031-.165.042a.853.853 0 0 1-.593-.073.682.682 0 0 1-.352-.515 1.04 1.04 0 0 1 .042-.476l.013-.039a.955.955 0 0 1-.469-.433c-.133-.271-.095-.526.084-.762.089-.117.204-.204.333-.274l.048-.026c-.017-.071-.037-.14-.048-.211a.82.82 0 0 1 .099-.585.686.686 0 0 1 .499-.321c.163-.026.323-.005.479.045l.03.009c.001 0 .002 0-.003-.005.06-.085.114-.175.181-.255a.762.762 0 0 1 .407-.263.688.688 0 0 1 .604.131 1.037 1.037 0 0 1 .313.393c.105-.036.211-.06.321-.065.237-.01.449.05.615.229a.71.71 0 0 1 .185.439c.013.145-.008.286-.053.424l-.009.031c.104.051.201.113.285.192.173.163.274.359.26.602a.715.715 0 0 1-.176.422 1.07 1.07 0 0 1-.337.264l-.026.014c.018.088.042.172.052.258.027.225-.011.435-.16.616a.695.695 0 0 1-.442.244 1.07 1.07 0 0 1-.516-.056zM27.719 49.25c.109.055.206.121.295.201a.717.717 0 0 1 .05 1.043 1.26 1.26 0 0 1-.159.142c-.057.043-.12.076-.182.115.013.053.031.109.042.165.04.205.03.406-.073.593a.682.682 0 0 1-.515.352 1.04 1.04 0 0 1-.476-.042l-.039-.013a.955.955 0 0 1-.433.469c-.271.133-.526.095-.762-.084a1.016 1.016 0 0 1-.274-.333l-.026-.048c-.071.017-.14.037-.211.048a.82.82 0 0 1-.585-.099.686.686 0 0 1-.321-.499 1.025 1.025 0 0 1 .045-.479l.009-.03c0-.001 0-.002-.005.003-.085-.06-.175-.114-.255-.181a.762.762 0 0 1-.263-.407.688.688 0 0 1 .131-.604 1.037 1.037 0 0 1 .393-.313 1.145 1.145 0 0 1-.065-.321c-.01-.237.05-.449.229-.615a.71.71 0 0 1 .439-.185c.145-.013.286.008.424.053l.031.009a1.15 1.15 0 0 1 .192-.285c.163-.173.359-.274.602-.26.16.009.299.074.422.176.112.093.197.208.264.337l.014.026c.088-.018.172-.042.258-.052.225-.027.435.011.615.16a.695.695 0 0 1 .244.442c.028.177.003.347-.055.516zM75.896 49.25c.109.055.206.121.295.201a.717.717 0 0 1 .05 1.043 1.26 1.26 0 0 1-.159.142c-.057.043-.12.076-.182.115.013.053.031.109.042.165.04.205.03.406-.073.593a.682.682 0 0 1-.515.352 1.04 1.04 0 0 1-.476-.042l-.039-.013a.955.955 0 0 1-.433.469c-.271.133-.526.095-.762-.084a1.016 1.016 0 0 1-.274-.333l-.026-.048c-.071.017-.14.037-.211.048a.82.82 0 0 1-.585-.099.686.686 0 0 1-.321-.499 1.025 1.025 0 0 1 .045-.479l.009-.03c0-.001 0-.002-.005.003-.085-.06-.175-.114-.255-.181a.762.762 0 0 1-.263-.407.688.688 0 0 1 .131-.604 1.037 1.037 0 0 1 .393-.313 1.145 1.145 0 0 1-.065-.321c-.01-.237.05-.449.229-.615a.71.71 0 0 1 .439-.185c.145-.013.286.008.424.053l.031.009a1.15 1.15 0 0 1 .192-.285c.163-.173.359-.274.602-.26.16.009.299.074.422.176.112.093.197.208.264.337l.014.026c.088-.018.172-.042.258-.052.225-.027.435.011.616.16a.695.695 0 0 1 .244.442c.027.177.002.347-.056.516zM34.436 34.053c.039.116.061.231.067.351a.717.717 0 0 1-.702.773 1.166 1.166 0 0 1-.213-.012c-.07-.01-.139-.031-.21-.047-.028.047-.055.098-.088.146a.858.858 0 0 1-.471.368.678.678 0 0 1-.613-.116 1.03 1.03 0 0 1-.307-.367l-.019-.037-.035.011a.957.957 0 0 1-.603.014c-.286-.097-.439-.305-.48-.599-.02-.146 0-.289.042-.429l.016-.052c-.062-.038-.125-.073-.183-.115a.823.823 0 0 1-.343-.483.683.683 0 0 1 .126-.58c.097-.134.225-.232.371-.307l.027-.015c.001 0 .001-.002-.006-.001-.018-.103-.043-.204-.052-.308a.759.759 0 0 1 .102-.474.69.69 0 0 1 .52-.335c.158-.023.311-.001.462.046l.037.012c.049-.099.107-.192.181-.272.16-.175.352-.282.596-.273a.714.714 0 0 1 .442.18c.111.094.197.208.262.338a.93.93 0 0 0 .016.028c.11-.037.222-.062.337-.066.238-.006.447.06.609.242.107.12.159.264.174.423a1.06 1.06 0 0 1-.052.425l-.009.028c.075.049.151.092.219.146.178.14.3.316.322.548a.688.688 0 0 1-.141.485c-.102.143-.24.245-.401.324zM68.503 68.12c.039.116.061.231.067.351a.717.717 0 0 1-.702.773 1.166 1.166 0 0 1-.213-.012c-.07-.01-.139-.031-.21-.047-.028.047-.055.098-.088.146a.858.858 0 0 1-.471.368.678.678 0 0 1-.613-.116 1.03 1.03 0 0 1-.307-.367l-.019-.037-.035.011a.957.957 0 0 1-.603.014c-.286-.097-.439-.305-.48-.599-.02-.146 0-.289.042-.429l.016-.052c-.062-.038-.125-.073-.183-.115a.823.823 0 0 1-.343-.483.683.683 0 0 1 .126-.58c.097-.134.225-.232.371-.307l.027-.015c.001 0 .001-.002-.006-.001-.018-.103-.043-.204-.052-.308a.759.759 0 0 1 .102-.474.69.69 0 0 1 .52-.335c.158-.023.311-.001.462.046l.037.012c.049-.099.107-.192.181-.272.16-.175.352-.282.596-.273a.714.714 0 0 1 .442.18c.111.094.197.208.262.338a.93.93 0 0 0 .016.028c.11-.037.222-.062.337-.066.238-.006.447.06.609.242.107.12.159.264.174.423a1.06 1.06 0 0 1-.052.425l-.009.028c.075.049.151.092.219.146.178.14.3.316.322.548a.688.688 0 0 1-.141.485c-.102.142-.24.245-.401.324zM33.715 65.225a1.29 1.29 0 0 1 .351-.067.717.717 0 0 1 .773.702c.003.071-.002.143-.012.213s-.031.139-.047.21c.047.028.098.055.146.088a.858.858 0 0 1 .368.471.678.678 0 0 1-.116.613 1.03 1.03 0 0 1-.367.307l-.037.019.011.035c.062.2.082.401.014.603-.097.286-.305.439-.599.48-.146.02-.289 0-.429-.042l-.052-.016c-.038.062-.073.125-.115.183a.823.823 0 0 1-.483.343.683.683 0 0 1-.58-.126 1.022 1.022 0 0 1-.307-.371l-.015-.027c0-.001-.002-.001-.001.006-.103.018-.204.043-.308.052a.759.759 0 0 1-.474-.102.69.69 0 0 1-.335-.52 1.035 1.035 0 0 1 .046-.462l.012-.037a1.141 1.141 0 0 1-.272-.181c-.175-.16-.282-.352-.273-.596a.714.714 0 0 1 .18-.442c.094-.111.208-.197.338-.262a.93.93 0 0 0 .028-.016 1.185 1.185 0 0 1-.066-.337c-.006-.238.06-.447.242-.609a.717.717 0 0 1 .423-.174 1.06 1.06 0 0 1 .425.052l.028.009c.049-.075.092-.151.146-.219.14-.178.316-.3.548-.322a.688.688 0 0 1 .485.141c.142.102.245.241.324.401zM67.781 31.158a1.29 1.29 0 0 1 .351-.067.716.716 0 0 1 .773.702c.003.071-.002.143-.012.213s-.031.139-.047.21c.047.028.098.055.146.088a.858.858 0 0 1 .368.471.678.678 0 0 1-.116.613 1.03 1.03 0 0 1-.367.307l-.037.019.011.035c.062.2.082.401.014.603-.097.286-.305.439-.599.48-.146.02-.289 0-.429-.042l-.052-.016c-.038.062-.073.125-.115.183a.823.823 0 0 1-.483.343.683.683 0 0 1-.58-.126 1.022 1.022 0 0 1-.307-.371l-.015-.027c0-.001-.002-.001-.001.006-.103.018-.204.043-.308.052a.759.759 0 0 1-.474-.102.69.69 0 0 1-.335-.52 1.035 1.035 0 0 1 .046-.462l.012-.037a1.141 1.141 0 0 1-.272-.181c-.175-.16-.282-.352-.273-.596a.714.714 0 0 1 .18-.442c.094-.111.208-.197.338-.262a.93.93 0 0 0 .028-.016 1.185 1.185 0 0 1-.066-.337c-.006-.238.06-.447.242-.609a.717.717 0 0 1 .423-.174 1.06 1.06 0 0 1 .425.052l.028.009c.049-.075.092-.151.146-.219.14-.178.316-.3.548-.322a.688.688 0 0 1 .485.141c.143.103.246.241.324.401z"></path><path d="M41.22 8.622a.997.997 0 0 1-.79-.166.978.978 0 0 1-.64.492.987.987 0 0 1-.79-.139.98.98 0 0 1-.62.52c-.28.08-.57.031-.8-.11a.995.995 0 0 1-1.411.45c-.101.25-.3.46-.58.56-.271.1-.56.195-.8.075-.099.25-.298.696-.568.696h-.001l.001-.001c-.277 0-.563-.026-.801-.144-.09.25-.28.417-.54.527-.271.12-.561.079-.811-.021a.946.946 0 0 1-.52.595.973.973 0 0 1-.8.022 1 1 0 0 1-1.3.684.996.996 0 0 1-.48.639c-.25.15-.395.169-.655.089-.049.27-.314.51-.314.67v-.01c-1 .16-.675.19-.935.12-.04.27-.263.52-.502.68-.25.16-.567.355-.837.295-.03.27-.206.855-.446.855h.01c-.24 0-.53.065-.79.005-.03.27-.16.453-.391.633-.229.18-.51.201-.779.161-.011.27-.141.511-.36.701s-.51.25-.78.21a.976.976 0 0 1-.076.364l2.346 5.913c.906 2.285-.192 3.423-2.477 2.517l-5.862-2.328a.973.973 0 0 1-.17.744.966.966 0 0 1-.7.4c.06.27.01.56-.15.8-.17.24-.42.38-.689.42a1 1 0 0 1-.79 1.25c.08.26.05.55-.101.8-.14.25-.39.42-.649.47.09.26.069.55-.07.81-.14.26-.37.43-.64.49.1.26.1.55-.03.81s-.37.44-.63.52c.109.25.12.54 0 .81-.13.26-.351.45-.61.53a.997.997 0 0 1-.57 1.37 1.005 1.005 0 0 1-.51 1.39c.13.24.16.53.07.8-.09.28-.29.49-.54.6.14.23.19.52.1.8-.08.28-.279.5-.52.62.149.22.2.51.13.79-.07.29-.26.51-.5.64.16.22.22.5.16.79a1 1 0 0 1-.48.65c.17.21.24.5.19.78-.05.29-.23.53-.46.67a.993.993 0 0 1-.21 1.46c.18.2.27.48.24.77a1.034 1.034 0 0 1-.351.635l5.558 2.423c2.256.975 1.924 2.556-.332 3.531L7.9 53.933l.002.007c.021.29-.08.561-.26.761.22.159.38.399.41.689.04.29-.05.65-.23.86.228.14.398.75.438.75h.01c.04 0-.04.49-.21.7.23.14.41.34.46.62a.94.94 0 0 1-.17.769c.23.131.42.35.48.64.069.28.01.556-.141.785.24.12.431.337.5.618.08.29.03.569-.12.799.25.12.45.329.53.61.09.279.05.569-.09.799a1 1 0 0 1 .55.59.96.96 0 0 1-.06.8 1.007 1.007 0 0 1 .53 1.38c.26.091.479.28.59.551.12.27.109.56-.011.8a.996.996 0 0 1 .631 1.33c.26.069.489.25.63.51.13.26.14.55.04.8.27.07.5.24.649.49.141.25.16.54.07.8.27.05.51.21.66.46.149.25.18.54.109.8.261.051.511.2.67.44.16.25.2.53.131.8.27.03.52.17.689.41s.095.53.035.79c.27.03.575.16.575.4v-.011c0 .24.365.521.314.79.271.021.593.141.783.37.066.081.108.177.149.272l5.481-2.153c2.285-.906 3.172.447 2.266 2.732l-2.008 5.162c.132.035.259.097.373.187.23.19.351.575.37.845.265-.05.555.315.785.315h.01c.23 0 .36.305.391.575.26-.061.55-.073.79.097.239.171.38.39.42.659.26-.07.55-.046.79.114.25.16.399.402.439.672a.956.956 0 0 1 .8.106c.261.15.42.388.471.658.26-.09.55-.071.8.069.26.14.43.379.49.649.25-.1.55-.09.81.04.26.141.43.37.51.63.25-.1.54-.1.811.02.26.13.439.35.52.609.25-.109.54-.119.811-.01.27.12.47.34.55.59.25-.12.54-.14.81-.029.28.1.48.319.58.569.23-.13.53-.16.8-.069.28.1.49.31.591.56a.995.995 0 0 1 1.42.429.974.974 0 0 1 .8-.12c.28.07.5.261.62.511a.971.971 0 0 1 .8-.15c.28.061.51.24.64.48.221-.16.5-.23.79-.181.28.061.521.23.66.471.21-.17.49-.25.78-.21.29.05.53.22.68.439.146-.124.34-.185.544-.208l2.358-5.445c.975-2.256 2.556-2.293 3.531-.037l2.553 5.901a.971.971 0 0 1 .554-.246c.3-.029.57.082.771.263a.94.94 0 0 1 .689-.399c.29-.04.57.06.771.231a1.007 1.007 0 0 1 1.46-.22c.149-.22.38-.399.67-.45.29-.05.569.021.779.181.141-.23.37-.41.65-.47.29-.07.57 0 .8.149.12-.24.351-.42.63-.5.28-.07.57-.01.79.13.12-.24.341-.43.62-.52.28-.08.57-.09.8.05.106-.238.316-.588.586-.588h.01c.27 0 .56.186.8.315.1-.25.3-.315.57-.315h.01c.27 0 .56-.274.8-.155.09-.25.28-.558.55-.678.271-.109.561-.139.811-.028a1 1 0 0 1 1.34-.647.993.993 0 0 1 1.31-.669c.07-.26.24-.491.5-.631a.98.98 0 0 1 .801-.07c.06-.271.22-.5.47-.651s.54-.18.8-.1c.05-.261.2-.511.45-.67.24-.15.53-.19.79-.12a.986.986 0 0 1 .43-.681c.24-.17.53-.21.79-.149.03-.271.17-.53.4-.7a.986.986 0 0 1 .778-.18l-2.286-5.777c-.906-2.285.187-3.428 2.472-2.522l5.858 2.32c.127-.055.263-.083.398-.083a.97.97 0 0 1 .22-.778c.19-.23.23-.35.501-.36-.043-.272-.023-.551-.023-.781v-.01c1-.23.66-.36.93-.38-.06-.271.11-.55.28-.79.171-.24.476-.38.745-.41-.06-.26.008-.55.167-.79.17-.25.434-.39.704-.43a.975.975 0 0 1 .117-.811 1.02 1.02 0 0 1 .673-.45.999.999 0 0 1 .732-1.279 1.007 1.007 0 0 1 .691-1.311 1.04 1.04 0 0 1 .029-.81c.131-.26.36-.45.62-.521a.998.998 0 0 1 0-.81c.12-.271.341-.46.601-.55a.964.964 0 0 1-.03-.8c.11-.28.43-.471.69-.57-.129-.238.051-.528.051-.809v.011c0-.28.2-.49.45-.59-.13-.24-.225-.53-.135-.811s.263-.49.503-.6a1.011 1.011 0 0 1-.124-.801.97.97 0 0 1 .514-.619 1 1 0 0 1-.144-.79.973.973 0 0 1 .489-.641.999.999 0 0 1 .298-1.45c-.16-.21-.24-.489-.19-.779.05-.29.22-.53.449-.67-.18-.21-.26-.49-.22-.78s.2-.53.42-.68a1.025 1.025 0 0 1-.249-.76l-6.238-2.652c-2.256-.975-1.932-2.556.324-3.531l5.993-2.569a1.415 1.415 0 0 1-.14-.465c-.03-.29.06-.632.24-.831a1.067 1.067 0 0 1-.431-.721.998.998 0 0 1 .21-.785c-.229-.15-.41-.388-.46-.678s.021-.439.181-.649c-.23-.139-.41-.518-.47-.518h-.01c-.06-1 .01-.705.16-.935-.24-.12-.43-.418-.5-.697s-.021-.604.13-.824c-.24-.12-.44-.357-.52-.637a.982.982 0 0 1 .1-.808 1.04 1.04 0 0 1-.55-.594c-.09-.28-.061-.572.069-.812a.99.99 0 0 1-.51-1.381.999.999 0 0 1-.59-.551c-.11-.27-.09-.56.02-.8a1 1 0 0 1-.6-.54.971.971 0 0 1-.01-.8c-.26-.08-.49-.26-.62-.52a.976.976 0 0 1-.04-.8c-.26-.07-.5-.24-.64-.49a1.02 1.02 0 0 1-.07-.8c-.26-.06-.5-.22-.65-.47-.149-.26-.17-.695-.1-.945-.259-.051-.509.404-.659-.596h-.01c-.15 0-.19-.395-.12-.655-.27-.03-.52-.107-.68-.347a.901.901 0 0 1-.15-.754.99.99 0 0 1-.7-.382c-.18-.24-.229-.511-.18-.781a1.006 1.006 0 0 1-.71-.366 1.036 1.036 0 0 1-.152-.307l-6.398 2.494c-2.285.906-3.173-.442-2.267-2.727l2.42-6.052a.985.985 0 0 1-.103-.402.965.965 0 0 1-.78-.19.97.97 0 0 1-.39-.71c-.271.05-.55 0-.79-.17s-.61-.42-.64-.69c-.26.059-.03.019-1.03-.141v-.01c0-.16-.161-.41-.2-.67-.261.07-.436.04-.686-.12-.25-.15-.353-.4-.402-.66a.925.925 0 0 1-.771-.09.965.965 0 0 1-.465-.65.964.964 0 0 1-.794-.06c-.26-.13-.621-.37-.691-.63-.25.1.009.1-.991-.03v.01c0-.13-.255-.36-.335-.62a.788.788 0 0 1-.717 0c-.271-.12-.414-.34-.494-.6a.94.94 0 0 1-.787.03.996.996 0 0 1-.558-.58.958.958 0 0 1-.795.06.991.991 0 0 1-.587-.56c-.239.13-.528.17-.798.08a.955.955 0 0 1-.61-.53 1.006 1.006 0 0 1-1.419-.4c-.22.15-.51.21-.79.14-.29-.07-.51-.26-.64-.49-.22.16-.51.23-.79.17-.29-.06-.52-.24-.66-.47a1.005 1.005 0 0 1-1.451-.25 1.001 1.001 0 0 1-1.469-.21.987.987 0 0 1-1.46-.15c-.2.19-.47.3-.76.28-.026-.002-.048-.017-.074-.021l-2.483 5.75c-.975 2.256-2.556 2.285-3.531.029l-2.43-5.63c-.082.026-.16.062-.253.062H44.1c-.29 0-.56.01-.77-.16-.15.23-.38.43-.67.48a.964.964 0 0 1-.78-.185c-.14.24-.37.427-.66.487zm1.84 11.85c.13-.25.38-.436.681-.496.3-.07.6.012.819.192.15-.24.4-.419.71-.469.3-.05.59.051.811.241a.99.99 0 0 1 .729-.44c.3-.03.59.08.8.28.171-.23.44-.38.74-.4.311-.02.59.11.79.32.18-.22.46-.36.771-.36.3-.01.58.13.76.35.2-.21.479-.33.79-.32.3.01.57.17.74.39.21-.2.5-.31.8-.28.31.03.569.365.729.595.22-.19.51-.075.81-.075h.01c.3 0 .55.055.7.305.22-.18.52-.342.83-.282.3.06.54.209.68.459.23-.16.53-.251.83-.181.3.08.53.27.65.53a.989.989 0 0 1 .84-.115c.3.09.52.297.63.567.25-.15.56-.181.85-.081.29.11.5.34.601.61.25-.13.56-.16.85-.031.28.12.48.35.56.63.261-.12.57-.12.851.01.28.14.46.38.53.66.27-.1.58-.09.85.06s.45.4.5.69c.27-.09.58-.07.84.1.26.16.42.42.46.7.28-.07.59-.03.84.15.25.17.4.45.431.73.279-.06.58 0 .83.18.239.19.369.47.39.76.28-.05.58.02.81.22.24.2.36.49.351.77.29-.03.58.06.81.27.221.21.25.5.23.79.279-.02.71.08.71.3v.01c0 .22.38.51.35.8.29-.01.61.11.811.34.21.24.299.54.25.82.29.01.58.14.77.38.19.24.255.55.195.83.28.02.552.17.732.42.181.25.222.56.152.83a1.007 1.007 0 0 1 .822 1.3 1 1 0 0 1 .68.49c.15.27.17.58.07.85.27.06.52.25.66.53.13.27.13.58.02.84a1.01 1.01 0 0 1 .61 1.41c.27.09.489.3.6.59s.08.59-.07.84c.271.11.49.33.58.63.09.29.04.59-.109.84.26.12.46.35.54.65.08.3.02.6-.15.83.25.13.44.38.51.68.061.3-.02.6-.2.82.25.15.431.4.48.71.04.3-.05.59-.24.81.24.16.4.42.44.73.03.3-.08.59-.28.8.23.17.38.43.4.74.02.31.06.59-.15.79.22.18.53.46.53.76v.13c0 .31-.311.58-.521.77.2.19.245.47.226.78-.011.31-.203.58-.433.75.2.2.289.49.259.8a1 1 0 0 1-.451.73c.19.21.285.5.235.81a.963.963 0 0 1-.463.7c.17.229.249.53.189.83-.061.3-.251.54-.501.68a1 1 0 0 1-.391 1.48c.16.239.21.55.12.84-.1.3-.31.52-.58.63.15.25.181.56.07.85-.1.29-.33.5-.6.591.13.26.149.569.029.85a1.03 1.03 0 0 1-.64.57c.12.26.12.569-.01.85-.141.271-.391.46-.67.53a.93.93 0 0 1-.061.84c-.149.27-.399.34-.68.39.09.27.06.73-.1.73h-.011c-.16 0-.42.53-.71.57.08.28.04.645-.14.895s-.45.428-.74.447c.07.28.01.605-.18.844-.19.24-.47.387-.76.397a.978.978 0 0 1-.221.813c-.21.24-.604.362-.894.351.038.289-.378.58-.378.811v-.01c0 .229-.395.33-.685.31.021.29-.023.58-.242.79-.23.22-.492.3-.782.271a.953.953 0 0 1-.326.77s.007 0-.003.01a.963.963 0 0 1-.806.221.99.99 0 0 1-1.207.94c-.03.29-.18.561-.43.74-.25.17-.55.21-.83.14a.998.998 0 0 1-1.3.811.994.994 0 0 1-.5.689c-.27.15-.57.16-.84.061a.999.999 0 0 1-1.37.68c-.09.27-.28.51-.57.63a.982.982 0 0 1-.84-.03c-.1.271-.31.5-.6.601a.958.958 0 0 1-.84-.07.99.99 0 0 1-.62.58c-.3.09-.456.04-.706-.11-.119.25-.504.46-.504.54v-.01c0 .08-.746.021-.975-.149-.14.25-.452.449-.752.51a1.104 1.104 0 0 1-.866-.2 1.024 1.024 0 0 1-1.538.23c-.159.24-.424.4-.734.44a.995.995 0 0 1-.802-.28 1 1 0 0 1-.751.391.967.967 0 0 1-.781-.32c-.19.22-.46.36-.77.36-.311 0-.58-.141-.771-.36-.19.22-.47.34-.78.33-.31-.021-.58-.17-.75-.4a1.005 1.005 0 0 1-1.529-.15c-.21.189-.5.279-.811.239a.976.976 0 0 1-.7-.47c-.229.181-.529.26-.83.2a.989.989 0 0 1-.68-.51c-.229.17-.53.24-.83.16s-.53-.28-.66-.54a.988.988 0 0 1-.84.12 1.024 1.024 0 0 1-.62-.58.973.973 0 0 1-.85.069.99.99 0 0 1-.6-.6.991.991 0 0 1-.841.03.977.977 0 0 1-.569-.641.995.995 0 0 1-1.38-.67c-.271.101-.58.09-.851-.06a.988.988 0 0 1-.49-.69c-.279.09-.59.061-.85-.1s-.42-.431-.46-.71a.986.986 0 0 1-.83-.141c-.26-.18-.4-.449-.43-.739a.972.972 0 0 1-.83-.181c-.24-.189-.37-.47-.38-.76a.983.983 0 0 1-.82-.22 1 1 0 0 1-.35-.78.971.971 0 0 1-.801-.26.993.993 0 0 1-.31-.79.995.995 0 0 1-.79-.311c-.21-.22-.3-.52-.27-.8-.29 0-.57-.12-.771-.35a.953.953 0 0 1-.229-.82c-.29-.01-.57-.14-.761-.38-.189-.25-.25-.55-.189-.83a.995.995 0 0 1-.73-.42.958.958 0 0 1-.14-.83.982.982 0 0 1-.71-.46.972.972 0 0 1-.11-.84 1.001 1.001 0 0 1-.75-1.34c-.27-.07-.52-.261-.66-.53a1.01 1.01 0 0 1-.01-.85c-.28-.08-.51-.28-.64-.561a.985.985 0 0 1 .029-.84.99.99 0 0 1-.6-.6.986.986 0 0 1 .06-.841 1.005 1.005 0 0 1-.46-1.46c-.26-.13-.46-.359-.54-.659a.97.97 0 0 1 .16-.83.993.993 0 0 1-.51-.681c-.06-.3.021-.6.2-.83a.968.968 0 0 1-.48-.699c-.04-.301.051-.601.24-.811a.981.981 0 0 1-.43-.729.973.973 0 0 1 .27-.801.994.994 0 0 1-.39-.75c-.021-.3.11-.59.32-.78a.991.991 0 0 1-.36-.77.95.95 0 0 1 .35-.76c-.21-.2-.33-.48-.319-.79.02-.31.17-.57.399-.75-.2-.2-.319-.49-.29-.8.03-.3.2-.77.44-.93-.19-.22-.29-.03-.25-1.03h.01c.04 0 .22-.34.46-.49-.18-.23-.26-.415-.2-.725.061-.3.261-.488.511-.627a.914.914 0 0 1-.16-.804c.08-.3.279-.517.54-.637a.982.982 0 0 1-.12-.834.98.98 0 0 1 .58-.627.97.97 0 0 1-.08-.848c.109-.29.34-.499.609-.599a.995.995 0 0 1 .601-1.41c-.12-.26-.12-.57.01-.85.14-.28.39-.47.67-.53a.983.983 0 0 1 .05-.85c.15-.27.41-.44.69-.5-.09-.27-.06-.58.1-.84s.431-.42.71-.46c-.08-.28-.029-.58.141-.84.18-.25.45-.4.74-.42a.991.991 0 0 1 .18-.83c.189-.24.47-.38.76-.39-.05-.28.021-.58.22-.82.2-.23.49-.35.771-.35-.03-.28.06-.58.27-.8.21-.22.5-.33.79-.31-.02-.29.08-.58.311-.79.22-.21.52-.3.8-.27a.95.95 0 0 1 .35-.77c.23-.21.53-.28.811-.23.01-.29.14-.57.39-.76.24-.19.54-.25.82-.19.03-.28.17-.55.42-.73.26-.18.56-.22.84-.15a1 1 0 0 1 1.3-.81.988.988 0 0 1 1.33-.75c.07-.28.26-.52.53-.66.28-.14.59-.13.85-.02.08-.27.28-.51.561-.63.279-.13.59-.245.84-.115.1-.27.31-.735.59-.735h.01c.29 0 .59.055.84.195.11-.26.33-.412.62-.502.301-.09.601-.006.84.144a1.007 1.007 0 0 1 1.488-.363z"></path><path d="M78.25 56.46c-.16-.22-.23-.455-.17-.735.017-.085.062-.148.097-.219L67.22 50.848c-1.085-.469-.929-1.229.156-1.698l10.852-4.652a1.01 1.01 0 0 1-.008-1.169.99.99 0 0 1-.49-.63.988.988 0 0 1 .12-.79.994.994 0 0 1-.53-.6.967.967 0 0 1 .091-.8c-.25-.1-.46-.3-.561-.57-.1-.27-.08-.56.04-.8a.993.993 0 0 1-.58-.54.974.974 0 0 1 0-.8.978.978 0 0 1-.609-.52.966.966 0 0 1-.04-.8.996.996 0 0 1-.641-.48c-.14-.25-.3-.54-.22-.79-.26-.049-.8-.209-.8-.459v.01c0-.25-.05-.315.02-.575a.813.813 0 0 1-.3-.098l-10.943 4.335c-1.098.435-1.525-.213-1.09-1.311l4.376-10.943a1.03 1.03 0 0 1-.183-.429c-.26.07-.55.04-.79-.12a.97.97 0 0 1-.46-.66.984.984 0 0 1-1.28-.71c-.25.1-.54.1-.81-.03-.26-.13-.44-.35-.521-.61-.239.11-.529.12-.8.01a.997.997 0 0 1-.55-.59.998.998 0 0 1-1.38-.51c-.23.14-.521.18-.8.1a1.02 1.02 0 0 1-.601-.53.99.99 0 0 1-.79.13c-.29-.07-.51-.26-.64-.49-.21.16-.5.23-.78.17s-.52-.23-.66-.46c-.037.03-.085.041-.125.065l-4.74 10.974c-.469 1.085-1.229 1.098-1.698.014l-4.559-10.564a1.031 1.031 0 0 1-.538-.159c-.13.24-.35.42-.63.5a.992.992 0 0 1-.79-.13c-.109.24-.33.44-.6.53-.28.09-.57.05-.8-.09-.101.25-.3.46-.57.56-.27.1-.56.08-.8-.04a.98.98 0 0 1-.55.58.973.973 0 0 1-.801 0 .96.96 0 0 1-.51.61c-.26.13-.55.13-.8.04-.06.26-.229.49-.479.64-.261.14-.54.16-.801.08-.05.26-.21.5-.449.66-.25.15-.53.18-.79.11-.04.27-.181.52-.421.69-.056.038-.12.049-.18.075l4.331 10.917c.435 1.098-.092 1.646-1.191 1.21L25.771 34.44a1.01 1.01 0 0 1-.134.449c-.149.24-.399.4-.66.45a1.015 1.015 0 0 1-.72 1.29c.1.25.1.54-.03.8s-.35.44-.609.52c.109.24.12.53.01.8-.12.27-.34.46-.59.55a.998.998 0 0 1-.51 1.38c.14.23.18.52.09.8-.08.28-.395.49-.635.6.142.231.017.511.017.801v-.01a.7.7 0 0 1-.385.64c.16.22.288.5.227.78-.017.094-.06.173-.099.255l10.563 4.605c1.085.469.925 1.229-.16 1.698l-10.409 4.577a.97.97 0 0 1 .022 1.185c.24.131.42.351.5.631.07.279.021.56-.13.79.24.119.439.329.53.6.09.28.05.57-.091.8.25.101.461.3.561.58.1.271.08.55-.04.79.25.09.46.28.58.55.11.26.1.55 0 .8.25.08.479.25.61.511.119.26.13.55.029.8a1.01 1.01 0 0 1 .721 1.28c.26.05.5.21.659.449.15.25.19.54.12.801a.924.924 0 0 1 .368.127l10.711-4.208c1.098-.435 1.524.215 1.088 1.313l-4.109 10.559c.1.134.175.283.199.447a.978.978 0 0 1 .791.12.96.96 0 0 1 .451.66c.26-.09.55-.07.8.07.261.14.431.38.49.64.25-.1.54-.09.8.03.261.13.44.359.521.62.25-.11.54-.12.8-.011.271.11.46.33.55.591.24-.131.53-.15.8-.051a.99.99 0 0 1 .58.551c.24-.131.521-.17.801-.08a.95.95 0 0 1 .6.52c.23-.14.51-.2.8-.13.28.07.5.26.63.5a.94.94 0 0 1 .419-.168l4.557-10.525c.469-1.085 1.229-1.102 1.698-.017l4.69 10.84a.975.975 0 0 1 .296.151.999.999 0 0 1 .66-.46c.28-.061.56.01.78.16.13-.23.35-.421.63-.49.28-.07.56-.021.79.13.12-.25.33-.44.609-.53a.947.947 0 0 1 .79.09 1.007 1.007 0 0 1 1.37-.52c.101-.25.29-.47.55-.58.271-.11.561-.1.801.01.08-.26.26-.49.52-.62.26-.12.55-.13.8-.029a1 1 0 0 1 .48-.641c.25-.14.54-.16.8-.08.05-.26.2-.5.45-.649a.926.926 0 0 1 .384-.145L61.33 63.515c-.435-1.098.09-1.648 1.188-1.213l10.904 4.319c.03-.085.052-.172.107-.248.159-.23.244-.38.515-.41-.069-.263-.044-.553-.044-.803v.01c0-.25.564-.41.825-.46-.08-.26.012-.54.162-.8.141-.25.411-.42.682-.49a.97.97 0 0 1 .051-.8c.13-.261.37-.44.62-.511a.998.998 0 0 1 .005-.81c.11-.26.333-.46.592-.55a.982.982 0 0 1 .512-1.37.971.971 0 0 1-.09-.8c.091-.28.28-.58.521-.7-.14-.22-.2-.88-.12-.88h-.01c.08.001.26-.409.5-.539zM65 49.59l-.002-.007c-.005.079-.179.148-.189.217.021.06-.064.13-.064.2 0 .32-.183.6-.413.78.21.21.298.51.269.82-.04.32-.231.495-.481.646.19.229.26.754.19.754h.01c-.069 0-.279.655-.55.785.16.24.21.607.11.908-.1.3-.34.428-.62.528.139.27.15.779.01.779h.011c-.141 0-.391.605-.681.666.101.279.08.657-.09.927-.16.271-.44.469-.729.499.069.29.01.614-.181.864-.2.25-.49.302-.78.302.04.29-.05.743-.27.743h-.01c-.221 0-.521.425-.811.396 0 .29-.12.637-.359.837-.25.21-.561.293-.851.234-.029.3-.18.591-.45.762a.977.977 0 0 1-.859.125.99.99 0 0 1-.521.693c-.29.15-.609.141-.88.021-.08.28-.3.521-.59.641-.3.109-.62.071-.87-.08-.12.27-.359.49-.67.57-.3.069-.62 0-.85-.181a.978.978 0 0 1-.721.49c-.319.05-.619-.06-.84-.26-.17.24-.45.39-.76.399-.01.011-.03.011-.03.011a.997.997 0 0 1-.77-.36c-.2.22-.5.35-.811.32a1.01 1.01 0 0 1-.76-.431c-.22.19-.53.28-.84.23-.31-.061-.56-.26-.7-.521-.24.17-.56.23-.859.141a1.034 1.034 0 0 1-.641-.601.98.98 0 0 1-.87.04.98.98 0 0 1-.58-.66c-.27.12-.59.11-.859-.05a.994.994 0 0 1-.5-.72.992.992 0 0 1-1.27-.92c-.29.05-.6-.03-.84-.24s-.35-.51-.33-.81a.972.972 0 0 1-.8-.33.982.982 0 0 1-.24-.84.996.996 0 0 1-.911-1.28c-.29-.05-.56-.22-.72-.5a1.03 1.03 0 0 1-.05-.87.995.995 0 0 1-.65-.57c-.12-.3-.1-.62.04-.87a.996.996 0 0 1-.58-.649 1 1 0 0 1 .141-.86.978.978 0 0 1-.511-.7.996.996 0 0 1 .23-.84c-.24-.17-.41-.439-.43-.76-.021-.32.109-.61.319-.81a.98.98 0 0 1-.34-.8c.01-.31.17-.59.41-.76-.2-.22-.31-.52-.26-.84.05-.31.24-.57.49-.72a.94.94 0 0 1-.16-.85c.08-.31.29-.4.56-.51-.146-.258-.176-.718-.067-.718h.011c.109 0 .35-.66.63-.75-.12-.27-.12-.665.03-.945.149-.28.409-.497.699-.558-.09-.28-.06-.619.12-.879a.992.992 0 0 1 .75-.449.994.994 0 0 1 .221-.854c.199-.24.5-.363.789-.352-.02-.3.08-.601.311-.821a.994.994 0 0 1 .83-.271c0-.29.14-.58.39-.78.25-.19.57-.24.851-.17.04-.29.21-.57.479-.73.271-.17.59-.18.87-.08.07-.29.26-.54.55-.67.29-.14.61-.12.87.01.1-.28.32-.51.63-.61.3-.1.61-.05.86.11a.97.97 0 0 1 .689-.53.96.96 0 0 1 .841.2c.159-.25.43-.42.75-.46.31-.03.609.09.81.3.19-.23.47-.38.79-.37.32 0 .6.15.78.38.21-.21.51-.32.83-.29.31.04.569.22.729.47.23-.18.54-.27.851-.19.31.07.55.27.68.54.25-.16.57-.21.87-.1.3.1.52.46.609.74.271-.131.591.109.88.109h-.01c.29 0 .48.28.55.56.28-.1.601-.13.87.04.271.16.431.41.46.7.29-.07.61-.025.86.175.25.19.38.482.38.772.29-.04.601.056.82.276.229.22.33.528.3.818.3-.01.59.119.79.359.2.25.27.56.21.85.29.03.57.18.74.45.18.27.165.59.064.87.292.06.647.24.647.52v.01c0 .28.185.6.064.87.28.09.543.3.653.6.109.3.081.61-.069.87.27.12.485.36.565.66.08.31.003.62-.177.86.26.15.441.41.492.73.039.31.1.61-.1.82.229.178.564.456.569.773l.002-.003.001.01z"></path><path d="M44,52 c0,-1.213126 0.986874,-2.2 2.2,-2.2 h6.8 c0.551406,0 1,-0.448594 1,-1 v-5.64 c0,-1.654219 -1.345782,-3 -3,-3 h-2.8 c-1.654219,0 -3,1.345782 -3,3 v1.64 h4.4 c0.331406,0 0.6,0.268594 0.6,0.6 s-0.268594,0.6 -0.6,0.6 h-7.24 c-1.654219,0 -3,1.345782 -3,3 v2.8 c0,1.654219 1.345782,3 3,3 h1.64 m4.2,-8.8 c-0.331406,0 -0.6,-0.268594 -0.6,-0.6 s0.268594,-0.6 0.6,-0.6 s0.6,0.268594 0.6,0.6 s-0.268594,0.6 -0.6,0.6 m0,0 " visibility="visible"></path><path d="M57,46 h-1.64 v2.8 c0,1.213126 -0.986874,2.2 -2.2,2.2 h-6.8 c-0.551406,0 -1,0.448594 -1,1 v5.64 c0,1.654219 1.345782,3 3,3 h2.8 c1.654219,0 3,-1.345782 3,-3 v-1.64 h-4.4 c-0.331406,0 -0.6,-0.268594 -0.6,-0.6 s0.268594,-0.6 0.6,-0.6 h7.24 c1.654219,0 3,-1.345782 3,-3 v-2.8 c0,-1.654219 -1.345782,-3 -3,-3 m-5.84,11.6 c0.331406,0 0.6,0.268594 0.6,0.6 s-0.268594,0.6 -0.6,0.6 s-0.6,-0.268594 -0.6,-0.6 s0.268594,-0.6 0.6,-0.6 m0,0 " id="path1"></path></g></switch></svg>